<svg width="293" height="286" viewBox="0 0 293 286" fill="none" xmlns="http://www.w3.org/2000/svg">
<path d="M150.575 198.828L141.295 226.668" stroke="white" stroke-width="7" stroke-linecap="round"/>
<path d="M151.901 72.8857L142.621 100.726" stroke="white" stroke-width="7" stroke-linecap="round"/>
<path d="M139.313 180.049L140.42 176.729L133.779 174.515L132.673 177.836L139.313 180.049ZM120.741 213.63C120.13 215.464 121.121 217.446 122.955 218.057C124.789 218.668 126.771 217.677 127.382 215.843L120.741 213.63ZM132.673 177.836L120.741 213.63L127.382 215.843L139.313 180.049L132.673 177.836Z" fill="white"/>
<path d="M119.404 174.812L120.577 171.514L113.981 169.169L112.809 172.467L119.404 174.812ZM91.5975 232.124C90.95 233.945 91.9015 235.947 93.7228 236.594C95.5441 237.242 97.5455 236.29 98.193 234.469L91.5975 232.124ZM112.809 172.467L91.5975 232.124L98.193 234.469L119.404 174.812L112.809 172.467Z" fill="white"/>
<path d="M245.647 187.648C244.763 190.218 242.195 192.493 236.489 193.806C230.812 195.112 222.889 195.224 213.048 194.138C193.431 191.975 167.378 185.202 139.105 175.483C110.82 165.76 86.0742 155.185 69.2577 144.881C60.8209 139.712 54.6464 134.77 50.9849 130.24C47.3207 125.706 46.6733 122.272 47.603 119.568C48.7459 116.243 51.6038 113.768 57.1617 112.401C62.815 111.009 70.6594 110.956 80.4458 112.186C99.9565 114.637 125.803 121.99 154.145 131.732C182.479 141.473 207.364 151.627 224.248 161.721C232.717 166.784 238.873 171.659 242.483 176.227C246.04 180.726 246.763 184.401 245.647 187.648Z" stroke="white" stroke-width="8"/>
<path d="M184.372 54.1498C185.007 52.3241 184.042 50.3293 182.216 49.6943C180.391 49.0592 178.396 50.0245 177.761 51.8502L184.372 54.1498ZM145.944 143.324L144.794 146.63L151.405 148.93L152.555 145.624L145.944 143.324ZM177.761 51.8502L145.944 143.324L152.555 145.624L184.372 54.1498L177.761 51.8502Z" fill="white"/>
<path d="M188.365 101.832C188.976 99.9985 187.985 98.0164 186.151 97.4051C184.317 96.7939 182.335 97.7849 181.724 99.6187L188.365 101.832ZM164.49 151.322L163.383 154.642L170.024 156.855L171.13 153.535L164.49 151.322ZM181.724 99.6187L164.49 151.322L171.13 153.535L188.365 101.832L181.724 99.6187Z" fill="white"/>
<path d="M195.056 168.64C193.661 176.954 169.872 169.298 143.284 160.383C116.696 151.467 95.5586 143.811 97.5472 135.857C98.9741 126.74 123.399 137.183 149.913 145.137C176.427 155.08 200.29 162.371 195.056 168.64Z" fill="white"/>
</svg>
